<?xml version="1.0" encoding="utf-8"?>
<!-- Generator: Adobe Illustrator 16.0.0, SVG Export Plug-In . SVG Version: 6.00 Build 0)  -->
<!DOCTYPE svg PUBLIC "-//W3C//DTD SVG 1.1//EN" "http://www.w3.org/Graphics/SVG/1.1/DTD/svg11.dtd">
<svg version="1.1" id="Calque_1" xmlns="http://www.w3.org/2000/svg" xmlns:xlink="http://www.w3.org/1999/xlink" x="0px" y="0px"
	 width="24px" height="24px" viewBox="0 0 24 24" enable-background="new 0 0 24 24" xml:space="preserve">
<g>
	<defs>
		<rect id="SVGID_1_" width="24" height="24"/>
	</defs>
	<clipPath id="SVGID_2_">
		<use xlink:href="#SVGID_1_"  overflow="visible"/>
	</clipPath>
	<path clip-path="url(#SVGID_2_)" d="M20.41,9.59l-2.3-2.3L21,4.42L19.58,3l-2.87,2.89l-2.3-2.3v6H20.41z M9.59,3.59l-2.3,2.3
		L4.42,3L3,4.42l2.89,2.87l-2.3,2.3h6V3.59z M3.59,14.41l2.3,2.3L3,19.58L4.42,21l2.87-2.89l2.3,2.3v-6H3.59z M14.411,20.41l2.3-2.3
		L19.58,21L21,19.58l-2.889-2.87l2.299-2.3h-6L14.411,20.41z"/>
</g>
<g>
	<defs>
		<rect id="SVGID_3_" width="24" height="24"/>
	</defs>
	<clipPath id="SVGID_4_">
		<use xlink:href="#SVGID_3_"  overflow="visible"/>
	</clipPath>
	<path clip-path="url(#SVGID_4_)" fill="none" d="M0,0h24v24H0V0z"/>
</g>
</svg>
