<?xml version="1.0" encoding="UTF-8"?>
<!DOCTYPE svg PUBLIC "-//W3C//DTD SVG 1.1//EN" "http://www.w3.org/Graphics/SVG/1.1/DTD/svg11.dtd">
<svg version="1.1" xmlns="http://www.w3.org/2000/svg" xmlns:xlink="http://www.w3.org/1999/xlink" x="0" y="0" width="499.823" height="499.823" viewBox="0, 0, 499.823, 499.823">
  <g id="moveButton" transform="translate(-56.088, -56.088)">
    <g>
      <path d="M277.106,108.5 L306.5,57.588 L321.197,83.044 L335.894,108.5 L315.5,108.5 L315.5,297.5 L504.5,297.5 L504.5,277.106 L555.412,306.5 L529.956,321.197 L504.5,335.894 L504.5,315.5 L315.5,315.5 L315.5,504.5 L335.894,504.5 L321.197,529.956 L306.5,555.412 L277.106,504.5 L297.5,504.5 L297.5,315.5 L108.5,315.5 L108.5,335.894 L83.044,321.197 L57.588,306.5 L108.5,277.106 L108.5,297.5 L297.5,297.5 L297.5,108.5 L277.106,108.5 z" fill="#000000"/>
      <path d="M277.106,108.5 L306.5,57.588 L321.197,83.044 L335.894,108.5 L315.5,108.5 L315.5,297.5 L504.5,297.5 L504.5,277.106 L555.412,306.5 L529.956,321.197 L504.5,335.894 L504.5,315.5 L315.5,315.5 L315.5,504.5 L335.894,504.5 L321.197,529.956 L306.5,555.412 L277.106,504.5 L297.5,504.5 L297.5,315.5 L108.5,315.5 L108.5,335.894 L83.044,321.197 L57.588,306.5 L108.5,277.106 L108.5,297.5 L297.5,297.5 L297.5,108.5 L277.106,108.5 z" fill-opacity="0" stroke="#000000" stroke-width="1"/>
    </g>
  </g>
</svg>
