<?xml version="1.0" encoding="utf-8"?>
<!-- Generator: Adobe Illustrator 16.0.0, SVG Export Plug-In . SVG Version: 6.00 Build 0)  -->
<!DOCTYPE svg PUBLIC "-//W3C//DTD SVG 1.1 Tiny//EN" "http://www.w3.org/Graphics/SVG/1.1/DTD/svg11-tiny.dtd">
<svg version="1.1" baseProfile="tiny" id="Calque_1"
	 xmlns="http://www.w3.org/2000/svg" xmlns:xlink="http://www.w3.org/1999/xlink" x="0px" y="0px" width="54.897px"
	 height="53.167px" viewBox="0 0 54.897 53.167" xml:space="preserve">
<g>
	<g>
		<g>
			<line fill="none" stroke="#545656" stroke-width="5" stroke-miterlimit="10" x1="7.853" y1="46.726" x2="34.835" y2="18.744"/>
			<g>
				<polygon fill="#969654" points="38.941,16.816 36.375,14.251 44.48,6.145 46.015,6.228 46.984,7.197 47.044,8.711 				"/>
				<line fill="none" stroke="#EAE786" stroke-miterlimit="10" x1="37.658" y1="14.808" x2="45.189" y2="7.277"/>
			</g>
			<g>
				
					<rect x="15.248" y="17.13" transform="matrix(0.7071 -0.7071 0.7071 0.7071 -8.8463 27.4208)" fill="#969654" width="26.856" height="14.517"/>
				
					<rect x="15.248" y="18.582" transform="matrix(0.7071 -0.7071 0.7071 0.7071 -8.8464 27.4198)" fill="#AFAD64" width="26.857" height="11.613"/>
				
					<rect x="14.22" y="20.459" transform="matrix(0.7071 -0.7071 0.7071 0.7071 -8.4216 26.3928)" fill="#EAE786" width="26.857" height="5.806"/>
				<polygon fill="#969654" points="18.308,29.931 25.704,27.597 23.599,35.223 				"/>
			</g>
		</g>
	</g>
</g>
<g>
</g>
<g>
</g>
<g>
</g>
<g>
</g>
<g>
</g>
<g>
</g>
<g>
</g>
<g>
</g>
<g>
</g>
<g>
</g>
<g>
</g>
<g>
</g>
<g>
</g>
<g>
</g>
<g>
</g>
</svg>
