<?xml version="1.0" encoding="utf-8"?>
<!-- Generator: Adobe Illustrator 16.0.0, SVG Export Plug-In . SVG Version: 6.00 Build 0)  -->
<!DOCTYPE svg PUBLIC "-//W3C//DTD SVG 1.1 Tiny//EN" "http://www.w3.org/Graphics/SVG/1.1/DTD/svg11-tiny.dtd">
<svg version="1.1" baseProfile="tiny" id="Calque_1"
	 xmlns="http://www.w3.org/2000/svg" xmlns:xlink="http://www.w3.org/1999/xlink" x="0px" y="0px" width="54.897px"
	 height="53.167px" viewBox="0 0 54.897 53.167" xml:space="preserve">
<g>
	<g>
		<g id="Base_2_">
			<g>
				<path fill="#BCBFBF" d="M27.448,49.18c-12.518,0-22.702-10.184-22.702-22.702S14.93,3.775,27.448,3.775
					c12.519,0,22.703,10.185,22.703,22.703S39.966,49.18,27.448,49.18z"/>
				<path fill="#545656" d="M27.448,4.775c11.986,0,21.703,9.717,21.703,21.703S39.434,48.18,27.448,48.18
					c-11.985,0-21.702-9.716-21.702-21.702S15.462,4.775,27.448,4.775 M27.448,2.775c-13.069,0-23.702,10.633-23.702,23.703
					c0,13.069,10.633,23.702,23.702,23.702c13.07,0,23.703-10.633,23.703-23.702C51.151,13.408,40.518,2.775,27.448,2.775
					L27.448,2.775z"/>
			</g>
			<path fill="#999999" d="M27.448,4.775c-11.985,0-21.702,9.717-21.702,21.703c0,5.208,1.836,9.985,4.894,13.725
				c-0.995-1.424-7.478-11.752-0.717-23.594C11.9,13.144,14.068,10.5,16.178,8.5h22.338c2.121,2,4.296,4.644,6.274,8.109
				c7.3,12.788-0.745,23.637-0.745,23.637l0.005,0.139c3.18-3.775,5.101-8.616,5.101-13.939
				C49.151,14.459,39.434,4.775,27.448,4.775z"/>
			<path display="none" fill="#999999" d="M27.448,14.478c11.104,0,20.109,8.987,20.141,20.085c1.004-2.5,1.563-5.227,1.563-8.084
				c0-11.986-9.717-21.703-21.703-21.703c-11.985,0-21.702,9.717-21.702,21.703c0,2.858,0.559,5.584,1.563,8.084
				C7.339,23.465,16.344,14.478,27.448,14.478z"/>
			<path display="none" fill="#545656" d="M27.448,7.169c8.497,0,15.945,4.474,20.128,11.192
				C44.362,10.397,36.563,4.775,27.448,4.775S10.535,10.397,7.321,18.361C11.503,11.644,18.952,7.169,27.448,7.169z"/>
			<g>
				<path fill="#DCE2E2" d="M27.448,44.037c-10.818,0-19.62-8.802-19.62-19.622c0-10.819,8.802-19.621,19.62-19.621
					c10.819,0,19.621,8.802,19.621,19.621C47.069,35.235,38.267,44.037,27.448,44.037z"/>
				<path fill="#999999" d="M27.448,5.295c10.562,0,19.121,8.561,19.121,19.121c0,10.56-8.56,19.122-19.121,19.122
					c-10.561,0-19.12-8.562-19.12-19.122C8.328,13.856,16.887,5.295,27.448,5.295 M27.448,4.295c-11.094,0-20.12,9.026-20.12,20.121
					c0,11.095,9.026,20.122,20.12,20.122c11.095,0,20.121-9.026,20.121-20.122C47.569,13.321,38.542,4.295,27.448,4.295
					L27.448,4.295z"/>
			</g>
		</g>
	</g>
</g>
<g>
</g>
<g>
</g>
<g>
</g>
<g>
</g>
<g>
</g>
<g>
</g>
<g>
</g>
<g>
</g>
<g>
</g>
<g>
</g>
<g>
</g>
<g>
</g>
<g>
</g>
<g>
</g>
<g>
</g>
</svg>
