<?xml version="1.0" encoding="utf-8"?>
<!-- Generator: Adobe Illustrator 16.0.0, SVG Export Plug-In . SVG Version: 6.00 Build 0)  -->
<!DOCTYPE svg PUBLIC "-//W3C//DTD SVG 1.1 Tiny//EN" "http://www.w3.org/Graphics/SVG/1.1/DTD/svg11-tiny.dtd">
<svg version="1.1" baseProfile="tiny" id="Calque_1"
	 xmlns="http://www.w3.org/2000/svg" xmlns:xlink="http://www.w3.org/1999/xlink" x="0px" y="0px" width="135.25px" height="126px"
	 viewBox="0 0 135.25 126" xml:space="preserve">
<g>
	<g>
		<rect y="50.25" fill="#AD6464" width="16" height="12"/>
		<rect y="52.25" fill="#E88787" width="16" height="6"/>
	</g>
	<g>
		<rect y="67.25" fill="#6581AA" width="16" height="12"/>
		<rect y="69.25" fill="#88ADE5" width="16" height="6"/>
	</g>
	<g>
		<g id="Base_1_">
			<g>
				<path fill="#BCBFBF" d="M71.861,119.846c-31.291,0-56.748-25.457-56.748-56.748S40.57,6.35,71.861,6.35
					s56.748,25.457,56.748,56.748S103.152,119.846,71.861,119.846z"/>
				<path fill="#545656" d="M71.861,7.35c30.789,0,55.748,24.959,55.748,55.748c0,30.788-24.959,55.748-55.748,55.748
					c-30.789,0-55.748-24.96-55.748-55.748C16.113,32.309,41.073,7.35,71.861,7.35 M71.861,5.35
					c-31.842,0-57.748,25.906-57.748,57.748c0,31.843,25.906,57.748,57.748,57.748c31.843,0,57.748-25.905,57.748-57.748
					C129.609,31.255,103.704,5.35,71.861,5.35L71.861,5.35z"/>
			</g>
			<path fill="#999999" d="M71.861,7.35c-30.789,0-55.748,24.959-55.748,55.748c0,13.376,4.716,25.648,12.569,35.256
				c-2.556-3.656-19.209-29.52-1.842-59.941c5.082-8.9,10.65-15.398,16.071-20.162h57.381c5.447,4.764,11.035,11.262,16.116,20.162
				c18.753,32.85-1.912,60.387-1.912,60.387l0.011,0.188c8.17-9.698,13.102-22.215,13.102-35.889
				C127.609,32.309,102.65,7.35,71.861,7.35z"/>
			<path display="none" fill="#999999" d="M71.861,32.272c28.525,0,51.654,23.085,51.734,51.591
				c2.58-6.42,4.014-13.424,4.014-20.766c0-30.789-24.959-55.748-55.748-55.748c-30.789,0-55.748,24.959-55.748,55.748
				c0,7.342,1.434,14.346,4.013,20.766C20.207,55.357,43.336,32.272,71.861,32.272z"/>
			<path display="none" fill="#545656" d="M71.861,13.5c21.825,0,40.957,11.492,51.703,28.749
				C115.307,21.792,95.276,7.35,71.861,7.35S28.416,21.792,20.159,42.249C30.904,24.992,50.036,13.5,71.861,13.5z"/>
			<g>
				<path fill="#DCE2E2" d="M71.861,107.417c-27.358,0-49.616-22.258-49.616-49.616S44.503,8.185,71.861,8.185
					s49.616,22.258,49.616,49.616S99.22,107.417,71.861,107.417z"/>
				<path fill="#999999" d="M71.861,8.685c27.127,0,49.116,21.99,49.116,49.116s-21.989,49.116-49.116,49.116
					c-27.126,0-49.116-21.99-49.116-49.116S44.735,8.685,71.861,8.685 M71.861,7.685c-27.634,0-50.116,22.482-50.116,50.116
					c0,27.634,22.482,50.116,50.116,50.116c27.634,0,50.116-22.482,50.116-50.116C121.978,30.167,99.495,7.685,71.861,7.685
					L71.861,7.685z"/>
			</g>
		</g>
		<path fill-rule="evenodd" fill="#FFE461" stroke="#969654" stroke-width="2" stroke-miterlimit="10" d="M70.125,66.02
			c-4.341-1.518-8.49-2.968-12.855-4.494C68.99,48,80.583,34.621,92.176,21.242c0.104,0.051,0.207,0.102,0.311,0.153
			c-5.68,11.721-11.359,23.441-17.117,35.324c4.279,1.498,8.43,2.951,12.861,4.502c-12.354,11.082-24.54,22.012-36.724,32.943
			c-0.09-0.074-0.181-0.15-0.271-0.225C57.5,84.68,63.763,75.422,70.125,66.02z"/>
		<g>
			<circle fill="#999999" cx="34.094" cy="58.027" r="5.778"/>
			<circle fill="#BCBFBF" cx="34.112" cy="57.67" r="4.704"/>
			
				<line fill="#999999" stroke="#999999" stroke-width="3" stroke-miterlimit="10" x1="30.021" y1="60.947" x2="37.975" y2="54.397"/>
		</g>
		<g>
			<circle fill="#999999" cx="110.094" cy="58.027" r="5.778"/>
			<circle fill="#BCBFBF" cx="110.112" cy="57.67" r="4.704"/>
			
				<line fill="#999999" stroke="#999999" stroke-width="3" stroke-miterlimit="10" x1="106.021" y1="60.947" x2="113.975" y2="54.397"/>
		</g>
	</g>
</g>
<g>
</g>
<g>
</g>
<g>
</g>
<g>
</g>
<g>
</g>
<g>
</g>
<g>
</g>
<g>
</g>
<g>
</g>
<g>
</g>
<g>
</g>
<g>
</g>
<g>
</g>
<g>
</g>
<g>
</g>
</svg>
