<?xml version="1.0" encoding="utf-8"?>
<!-- Generator: Adobe Illustrator 16.0.0, SVG Export Plug-In . SVG Version: 6.00 Build 0)  -->
<svg version="1.2" baseProfile="tiny" id="Calque_1"
	 xmlns="http://www.w3.org/2000/svg" xmlns:xlink="http://www.w3.org/1999/xlink" x="0px" y="0px" width="48.375px"
	 height="53.569px" viewBox="0 0 48.375 53.569" xml:space="preserve">
<g id="Head">
	<g>
		<g>
			<g>
				<polygon fill="#999999" points="16.069,13.375 31.938,13.375 23.86,49.719 				"/>
				<path fill="#545656" d="M31.315,13.875l-7.447,33.5l-7.181-33.5H31.315 M32.563,12.875h-1.247H16.688H15.45l0.26,1.209
					l7.181,33.5l0.96,4.479l0.994-4.472l7.447-33.5L32.563,12.875L32.563,12.875z"/>
			</g>
			<path fill="#999999" stroke="#545656" stroke-miterlimit="10" d="M31.315,13.875"/>
		</g>
		<g>
			<polygon fill="#BCBFBF" points="23.902,47.375 27.625,13.875 18.519,13.875 			"/>
			<path fill="#D6C5B0" d="M29.484,13.875"/>
		</g>
		<g>
			<polygon fill="#DCE2E2" points="23.955,47.375 23.578,13.875 20.425,13.875 			"/>
			<path fill="#DCE2E2" d="M26.578,13.875"/>
		</g>
	</g>
	<g>
		<rect x="6.512" y="2.25" fill="#DCE2E2" width="35.352" height="7.625"/>
		<polygon fill="#BCBFBF" points="41.863,9.875 24.188,9.875 6.512,9.875 2.231,13.875 24.188,13.875 46.144,13.875 		"/>
		<polygon fill="#999999" points="46.144,13.875 41.863,9.875 41.863,2.25 46.144,6.126 		"/>
		<polygon fill="#999999" points="6.512,9.875 2.231,13.875 2.231,6.126 6.512,2.25 		"/>
		<path fill="#545656" d="M41.863,2.563l3.824,3.376v7.624h-43V5.938l3.824-3.376H41.863 M41.863,1.563H6.512
			c-0.244,0-0.479,0.089-0.662,0.25L2.026,5.189c-0.215,0.189-0.338,0.463-0.338,0.75v7.624c0,0.552,0.448,1,1,1h43
			c0.553,0,1-0.448,1-1V5.938c0-0.287-0.123-0.56-0.338-0.75l-3.824-3.376C42.343,1.651,42.107,1.563,41.863,1.563L41.863,1.563z"/>
	</g>
</g>
</svg>
